<svg width="32" height="32" viewBox="0 0 32 32" fill="none" xmlns="http://www.w3.org/2000/svg">
<path fill-rule="evenodd" clip-rule="evenodd" d="M9.14514 20.3758C9.34707 20.9731 9.02399 21.6201 8.42354 21.8209C6.47921 22.4713 5.44589 24.0947 4.89317 25.7457C4.6737 26.4012 4.5411 27.0323 4.46143 27.5541C4.98606 27.4749 5.62055 27.343 6.27963 27.1247C7.93941 26.5749 9.57161 25.5471 10.2255 23.6132C10.4274 23.016 11.0778 22.6946 11.6783 22.8954C12.2787 23.0963 12.6018 23.7433 12.3999 24.3405C11.4192 27.2412 8.99371 28.6308 7.00444 29.2897C5.99953 29.6225 5.05876 29.7868 4.37209 29.8688C4.02709 29.9099 3.74187 29.9308 3.53925 29.9414C3.43782 29.9467 3.35677 29.9495 3.29891 29.9509C3.26997 29.9516 3.24681 29.952 3.22976 29.9522L3.20882 29.9524L3.20187 29.9524L3.19929 29.9524L3.19822 29.9524C3.19775 29.9524 3.1973 29.9524 3.1973 28.8115C2.05025 28.8115 2.05025 28.8111 2.05026 28.8106L2.05026 28.8095L2.05026 28.807L2.05029 28.8001L2.05049 28.7792C2.05069 28.7623 2.05108 28.7392 2.05179 28.7104C2.05323 28.6529 2.056 28.5723 2.06133 28.4714C2.072 28.2698 2.09298 27.9862 2.13437 27.643C2.21674 26.96 2.38195 26.0243 2.71659 25.0247C3.37902 23.0461 4.77602 20.6335 7.69231 19.6581C8.29277 19.4572 8.94322 19.7786 9.14514 20.3758ZM3.1973 28.8115H2.05025C2.05025 29.4416 2.56381 29.9524 3.1973 29.9524V28.8115Z" fill="#8381D9"/>
<path fill-rule="evenodd" clip-rule="evenodd" d="M28.1874 3.95483C26.856 3.76384 23.5787 3.69189 20.2247 7.02796L11.3002 15.9048L16.1732 20.7517L25.0977 11.8749C28.4517 8.53884 28.3794 5.27912 28.1874 3.95483ZM28.52 1.6971C26.6889 1.43342 22.6073 1.43113 18.6026 5.41446L8.86698 15.098C8.65187 15.312 8.53102 15.6022 8.53102 15.9048C8.53102 16.2074 8.65187 16.4976 8.86698 16.7115L15.3621 23.172C15.8101 23.6175 16.5364 23.6175 16.9843 23.172L26.7199 13.4884C30.7246 9.5051 30.7223 5.44526 30.4572 3.62398C30.3901 3.13654 30.1645 2.68425 29.8146 2.33626C29.4648 1.98828 29.0101 1.76383 28.52 1.6971Z" fill="#8381D9"/>
<path fill-rule="evenodd" clip-rule="evenodd" d="M24.2885 13.1521C24.922 13.1521 25.4356 13.6629 25.4356 14.293V23.506L25.4354 23.5222C25.4269 24.1215 25.1816 24.6932 24.7528 25.114L20.1238 29.7325C19.8299 30.0245 19.4619 30.2316 19.059 30.3318C18.656 30.432 18.2333 30.4215 17.8359 30.3015C17.4385 30.1814 17.0813 29.9563 16.8024 29.6502C16.5238 29.3442 16.3338 28.9689 16.2527 28.564C16.2526 28.5637 16.2528 28.5643 16.2527 28.564L15.0485 22.5893C14.9239 21.9715 15.3265 21.3702 15.9477 21.2464C16.5688 21.1225 17.1733 21.5229 17.2978 22.1408L18.5026 28.1181L23.1415 23.4897V14.293C23.1415 13.6629 23.655 13.1521 24.2885 13.1521Z" fill="#8381D9"/>
<path fill-rule="evenodd" clip-rule="evenodd" d="M8.51469 6.69189L8.53103 6.69177H17.7935C18.4269 6.69177 18.9405 7.20258 18.9405 7.83269C18.9405 8.46281 18.4269 8.97361 17.7935 8.97361H8.54725L8.53798 8.98302L8.53792 8.98297L3.8941 13.5877L3.89588 13.5881L9.90355 14.786C10.5247 14.9099 10.9273 15.5111 10.8027 16.129C10.6782 16.7468 10.0737 17.1472 9.4526 17.0234L3.44672 15.8258C3.44637 15.8257 3.44603 15.8256 3.44568 15.8255C3.03871 15.7449 2.66136 15.5559 2.35382 15.2788C2.04602 15.0014 1.8197 14.6461 1.699 14.2508C1.5783 13.8555 1.56776 13.4351 1.6685 13.0343C1.76924 12.6335 1.97747 12.2674 2.27099 11.9751L2.27271 11.9734L2.27271 11.9734L6.91432 7.37087C7.33737 6.94439 7.91219 6.70042 8.51469 6.69189Z" fill="#8381D9"/>
</svg>
