<svg width="492" height="293" viewBox="0 0 492 293" fill="none" xmlns="http://www.w3.org/2000/svg">
<path d="M81.7398 277.645L81.0063 277.204C81.2123 276.862 101.663 242.778 104.846 234.286L105.648 234.587C102.436 243.152 82.583 276.241 81.7398 277.645Z" fill="#8B9D36"/>
<path d="M98.3159 216.414C99.1815 218.555 99.8433 220.774 100.293 223.04C100.752 225.259 101.089 227.502 101.303 229.758C101.522 232.013 101.615 234.28 101.581 236.546C101.568 238.856 101.335 241.16 100.883 243.426C100.014 241.286 99.3502 239.067 98.9021 236.8C98.442 234.581 98.1062 232.338 97.8964 230.082C97.6811 227.826 97.5898 225.56 97.6228 223.294C97.637 220.984 97.8691 218.68 98.3159 216.414Z" fill="#8B9D36"/>
<path d="M90.7689 226.734C91.8229 228.729 92.6818 230.822 93.3339 232.982C93.9913 235.093 94.5294 237.24 94.9454 239.412C95.3669 241.583 95.6639 243.777 95.8349 245.982C96.0302 248.23 96.0056 250.492 95.7614 252.736C94.7035 250.742 93.8429 248.65 93.1918 246.489C92.534 244.378 91.9975 242.231 91.5849 240.058C91.167 237.886 90.8716 235.692 90.7 233.488C90.5059 231.239 90.5289 228.978 90.7689 226.734Z" fill="#8B9D36"/>
<path d="M86.6102 238.75C87.5383 240.604 88.2701 242.55 88.7937 244.557C89.3222 246.511 89.7302 248.496 90.0154 250.501C90.3059 252.505 90.471 254.525 90.5096 256.549C90.5697 258.622 90.41 260.696 90.0333 262.736C89.1011 260.883 88.3676 258.937 87.8452 256.929C87.3159 254.975 86.9094 252.989 86.6281 250.984C86.3412 248.98 86.1777 246.96 86.1385 244.936C86.0795 242.863 86.2376 240.789 86.6102 238.75Z" fill="#8B9D36"/>
<path d="M81.3734 250.743C82.3053 252.296 83.0485 253.955 83.5874 255.685C84.1266 257.355 84.5466 259.062 84.8442 260.792C85.1476 262.521 85.3256 264.269 85.3769 266.024C85.4503 267.835 85.3048 269.647 84.9437 271.423C84.0079 269.871 83.2629 268.212 82.7251 266.482C82.1852 264.812 81.7666 263.105 81.4724 261.374C81.1731 259.644 80.9966 257.896 80.9443 256.141C80.8722 254.331 81.0163 252.519 81.3734 250.743Z" fill="#8B9D36"/>
<path d="M76.7528 258.239C77.7035 259.586 78.4883 261.043 79.0901 262.578C79.6799 264.044 80.1709 265.548 80.5596 267.079C80.9447 268.599 81.241 270.141 81.447 271.695C81.5431 272.479 81.6313 273.258 81.6898 274.052C81.72 274.861 81.8063 275.668 81.948 276.465C81.7503 276.359 81.5604 276.239 81.3797 276.106L80.9185 275.644C80.6244 275.329 80.3547 274.991 80.1117 274.635C79.6433 273.948 79.2286 273.226 78.8712 272.476C78.177 271.017 77.6316 269.491 77.2434 267.923C76.8474 266.368 76.591 264.782 76.4771 263.182C76.3389 261.529 76.4317 259.866 76.7528 258.239Z" fill="#8B9D36"/>
<path d="M102.804 239.735C104.357 238.032 106.104 236.517 108.01 235.22C109.846 233.944 111.769 232.798 113.764 231.789C115.756 230.774 117.818 229.901 119.933 229.177C122.106 228.407 124.363 227.897 126.656 227.659C125.107 229.366 123.36 230.883 121.453 232.179C119.617 233.455 117.693 234.6 115.696 235.605C113.701 236.616 111.639 237.487 109.524 238.212C107.351 238.981 105.096 239.492 102.804 239.735Z" fill="#8B9D36"/>
<path d="M97.6904 249.288C99.6763 247.663 101.829 246.254 104.111 245.084C106.328 243.92 108.615 242.896 110.959 242.016C113.301 241.13 115.696 240.393 118.13 239.809C120.619 239.185 123.168 238.83 125.732 238.75C123.749 240.378 121.597 241.789 119.314 242.959C117.097 244.123 114.809 245.146 112.464 246.021C110.12 246.902 107.725 247.638 105.291 248.222C102.802 248.845 100.254 249.202 97.6904 249.288Z" fill="#8B9D36"/>
<path d="M91.6709 259.906C93.439 258.336 95.381 256.975 97.4589 255.847C99.467 254.732 101.548 253.753 103.689 252.919C105.826 252.079 108.019 251.387 110.252 250.848C112.545 250.268 114.897 249.956 117.261 249.918C115.496 251.491 113.554 252.855 111.475 253.982C109.467 255.098 107.385 256.074 105.243 256.904C103.104 257.74 100.91 258.431 98.6777 258.971C96.3854 259.549 94.0345 259.863 91.6709 259.906Z" fill="#8B9D36"/>
<path d="M86.9136 268.078C88.4538 266.744 90.163 265.618 91.9971 264.73C93.7518 263.857 95.5729 263.124 97.4434 262.54C99.312 261.949 101.225 261.509 103.165 261.226C105.178 260.909 107.225 260.86 109.252 261.083C107.714 262.422 106.005 263.55 104.17 264.437C102.415 265.311 100.593 266.041 98.7215 266.622C96.8516 267.208 94.9381 267.646 92.9991 267.929C90.9859 268.246 88.9398 268.296 86.9136 268.078Z" fill="#8B9D36"/>
<path d="M83.1582 275.412C84.8515 273.786 86.7265 272.361 88.7461 271.165C90.6958 269.985 92.7239 268.938 94.8161 268.033C96.9056 267.122 99.0559 266.358 101.251 265.745C103.506 265.089 105.829 264.698 108.173 264.581C106.483 266.21 104.609 267.637 102.588 268.832C100.639 270.014 98.6095 271.059 96.5154 271.959C94.4241 272.866 92.2733 273.629 90.0781 274.242C87.8241 274.897 85.5021 275.289 83.1582 275.412Z" fill="#8B9D36"/>
<path d="M104.465 235.669C104.153 233.387 104.209 231.07 104.632 228.806C105.004 226.671 105.59 224.579 106.381 222.562C107.164 220.542 108.151 218.607 109.327 216.787C110.554 214.836 112.088 213.097 113.872 211.638C114.191 213.921 114.138 216.24 113.713 218.505C113.342 220.639 112.753 222.73 111.957 224.745C111.168 226.763 110.178 228.697 109.002 230.517C107.776 232.466 106.244 234.206 104.465 235.669Z" fill="#8B9D36"/>
<path d="M78.5981 279.044L77.7422 279.031C77.7805 276.692 78.7955 221.56 89.8226 204.098L90.5458 204.556C79.6464 221.815 78.6075 278.474 78.5981 279.044Z" fill="#50661A"/>
<path d="M86.6411 211.973C86.9802 209.416 87.0662 206.83 86.8976 204.256C86.7554 201.747 86.477 199.248 86.0637 196.769C85.6642 194.301 85.1207 191.856 84.4814 189.432C83.843 186.992 83.0366 184.645 82.1751 182.144C81.9317 182.765 81.7469 183.408 81.6231 184.063C81.4852 184.707 81.3844 185.358 81.3215 186.013C81.1879 187.299 81.1299 188.591 81.1477 189.883C81.1854 192.426 81.4183 194.962 81.8442 197.469C82.2587 199.968 82.8451 202.436 83.599 204.854C84.3445 207.333 85.3649 209.721 86.6411 211.973Z" fill="#50661A"/>
<path d="M100.196 177.061C98.3002 178.889 96.6749 180.978 95.3685 183.264C94.0961 185.433 93.0137 187.707 92.1334 190.062C91.2451 192.415 90.5656 194.841 90.1028 197.312C89.5853 199.895 89.4426 202.539 89.6791 205.163C91.58 203.339 93.2082 201.251 94.5137 198.963C95.7872 196.795 96.8673 194.519 97.7413 192.162C98.6235 189.807 99.3004 187.381 99.7644 184.909C100.28 182.327 100.425 179.684 100.196 177.061Z" fill="#50661A"/>
<path d="M109.283 191.112C107.034 192.919 104.91 194.876 102.926 196.97C100.962 199.007 99.0868 201.089 97.2525 203.183L91.803 209.437C90.8888 210.462 89.965 211.471 88.989 212.427C88.0246 213.44 86.9014 214.288 85.6636 214.939C86.4185 215.071 87.1922 215.052 87.9394 214.882C88.6931 214.731 89.4282 214.5 90.1321 214.192C91.5098 213.586 92.8189 212.835 94.0374 211.952C96.4023 210.221 98.5608 208.224 100.471 206C102.37 203.822 104.08 201.485 105.583 199.016C107.129 196.539 108.371 193.886 109.283 191.112Z" fill="#50661A"/>
<path d="M109.283 205.163C106.511 206.548 103.867 208.174 101.381 210.024C98.9212 211.823 96.5548 213.747 94.2911 215.787C92.0225 217.822 89.8612 219.974 87.8158 222.233C85.7154 224.512 83.8228 226.974 82.1606 229.589C84.9355 228.21 87.5815 226.584 90.067 224.733C92.5274 222.935 94.8926 221.01 97.1531 218.966C99.4186 216.927 101.578 214.774 103.624 212.516C105.723 210.236 107.617 207.776 109.283 205.163Z" fill="#50661A"/>
<path d="M108.359 216.188C105.566 217.488 102.895 219.033 100.375 220.805C97.8834 222.528 95.4817 224.377 93.1796 226.346C90.8729 228.309 88.6704 230.392 86.581 232.585C84.4361 234.797 82.4942 237.197 80.7788 239.756C83.5742 238.461 86.2476 236.917 88.7666 235.143C91.2588 233.422 93.6592 231.571 95.9581 229.598C98.2618 227.631 100.463 225.547 102.553 223.355C104.697 221.142 106.64 218.744 108.359 216.188Z" fill="#50661A"/>
<path d="M107.743 227.972C104.964 229.017 102.287 230.316 99.7457 231.852C97.2374 233.339 94.8104 234.959 92.4748 236.705C90.135 238.445 87.8914 240.31 85.7538 242.294C83.5581 244.293 81.5536 246.493 79.7661 248.865C82.5474 247.824 85.2257 246.527 87.7664 244.99C90.2751 243.503 92.7012 241.882 95.0339 240.132C97.3709 238.388 99.6132 236.521 101.751 234.538C103.946 232.538 105.951 230.34 107.743 227.972Z" fill="#50661A"/>
<path d="M108.359 236.521C105.451 237.691 102.651 239.113 99.9914 240.77C97.361 242.379 94.8133 244.12 92.3583 245.986C89.8988 247.846 87.5364 249.831 85.2805 251.934C82.9686 254.051 80.8482 256.368 78.9443 258.858C81.8541 257.693 84.6552 256.272 87.3149 254.614C89.9458 253.005 92.4924 251.263 94.9446 249.393C97.4013 247.529 99.7623 245.543 102.019 243.441C104.329 241.323 106.451 239.008 108.359 236.521Z" fill="#50661A"/>
<path d="M110.515 244.532C107.488 245.94 104.565 247.562 101.769 249.386C98.9921 251.164 96.3056 253.044 93.6863 255.005C91.0595 256.955 88.5054 258.988 85.9964 261.089C83.4615 263.172 81.067 265.341 78.4443 267.49C80.1284 267.213 81.7728 266.733 83.3416 266.06C84.8948 265.411 86.4128 264.68 87.8891 263.871C90.7929 262.246 93.5849 260.429 96.2462 258.432C98.8981 256.444 101.433 254.304 103.838 252.024C106.289 249.737 108.524 247.229 110.515 244.532Z" fill="#50661A"/>
<path d="M113.134 252.85C109.862 254.122 106.688 255.63 103.636 257.364C100.603 259.054 97.6599 260.868 94.7841 262.778C91.9078 264.687 89.1009 266.695 86.3634 268.801C84.9951 269.857 83.6398 270.932 82.2976 272.025C80.9993 273.177 79.62 274.233 78.1704 275.186C79.0794 275.187 79.9818 275.032 80.8386 274.728C81.6984 274.473 82.5332 274.163 83.3589 273.841C85.0055 273.187 86.5965 272.44 88.1571 271.647C91.2548 270.052 94.2584 268.279 97.1531 266.339C100.047 264.414 102.842 262.342 105.527 260.133C108.259 257.92 110.804 255.484 113.134 252.85Z" fill="#50661A"/>
<path d="M83.9865 221.76C83.8475 218.98 83.4363 216.221 82.7589 213.522C82.1194 210.872 81.329 208.261 80.3916 205.701C79.4609 203.139 78.3822 200.633 77.161 198.196C75.9383 195.696 74.4707 193.323 72.7798 191.112C72.9138 193.892 73.323 196.652 74.0015 199.352C74.6406 202.002 75.433 204.612 76.3747 207.17C77.3097 209.731 78.3902 212.236 79.6107 214.674C80.8342 217.173 82.2998 219.546 83.9865 221.76Z" fill="#50661A"/>
<path d="M82.1602 231.379C81.6355 228.614 80.8438 225.907 79.7962 223.295C78.7927 220.726 77.6449 218.216 76.3584 215.777C75.0783 213.335 73.659 210.968 72.1076 208.688C70.5466 206.346 68.7596 204.163 66.7725 202.17C67.2924 204.936 68.0824 207.644 69.131 210.256C70.1342 212.825 71.2838 215.334 72.5742 217.771C73.8585 220.212 75.2794 222.578 76.8301 224.858C78.392 227.199 80.1771 229.382 82.1602 231.379Z" fill="#50661A"/>
<path d="M80.779 240.68C79.8789 237.874 78.7205 235.157 77.3186 232.565C75.9642 230.008 74.4734 227.526 72.8526 225.129C71.2375 222.729 69.4923 220.418 67.6249 218.208C65.7434 215.939 63.6533 213.852 61.3818 211.973C62.2773 214.782 63.4343 217.5 64.8376 220.092C66.1912 222.649 67.6837 225.131 69.3087 227.525C70.9274 229.923 72.6741 232.232 74.541 234.442C76.423 236.71 78.5112 238.799 80.779 240.68Z" fill="#50661A"/>
<path d="M79.7664 250.943C78.3549 247.91 76.698 244.997 74.8123 242.233C72.971 239.485 71.0063 236.838 68.9182 234.291C66.837 231.74 64.6353 229.286 62.3129 226.931C59.9813 224.531 57.4546 222.329 54.7588 220.347C56.1648 223.384 57.8203 226.298 59.7082 229.061C61.5495 231.809 63.5156 234.455 65.6066 236.999C67.6927 239.547 69.896 241.999 72.2164 244.355C74.5493 246.753 77.0744 248.957 79.7664 250.943Z" fill="#50661A"/>
<path d="M78.9444 261.585C77.2139 258.701 75.252 255.963 73.0779 253.397C70.9495 250.842 68.7087 248.4 66.3556 246.072C64.0091 243.737 61.5528 241.512 58.9866 239.398C56.4067 237.24 53.6531 235.299 50.7539 233.594C52.4793 236.482 54.4401 239.221 56.6163 241.786C58.7446 244.341 60.9867 246.781 63.3423 249.107C65.6933 251.438 68.1511 253.661 70.7155 255.777C73.2965 257.933 76.0486 259.875 78.9444 261.585Z" fill="#50661A"/>
<path d="M78.4445 268.408C76.525 265.92 74.3924 263.604 72.0708 261.487C69.8035 259.385 67.4319 257.398 64.9649 255.534C62.5025 253.664 59.9459 251.922 57.3051 250.314C54.6355 248.656 51.8248 247.236 48.9058 246.072C50.8216 248.563 52.9533 250.881 55.2762 252.998C57.5429 255.101 59.9157 257.086 62.3854 258.946C64.8508 260.812 67.4086 262.553 70.0489 264.161C72.7188 265.818 75.528 267.239 78.4445 268.408Z" fill="#50661A"/>
<path d="M78.1705 274.108C75.8677 271.837 73.3767 269.766 70.7241 267.916C68.1203 266.064 65.4372 264.352 62.6749 262.778C59.9169 261.196 57.0817 259.749 54.1694 258.437C51.2306 257.086 48.1813 255.99 45.0552 255.161C47.3548 257.435 49.8452 259.508 52.499 261.358C55.1028 263.209 57.7867 264.92 60.5507 266.491C63.3117 268.067 66.1478 269.513 69.0591 270.826C71.9981 272.175 75.0461 273.273 78.1705 274.108Z" fill="#50661A"/>
<path d="M78.3831 277.805C75.6202 275.898 72.7066 274.22 69.6713 272.786C66.6822 271.343 63.6346 270.057 60.5374 268.906C57.4405 267.754 54.2895 266.748 51.0843 265.887C47.8482 264.993 44.5437 264.368 41.2046 264.018C43.9645 265.93 46.8777 267.61 49.9144 269.042C52.9039 270.485 55.9492 271.777 59.0504 272.917C62.1493 274.063 65.2984 275.075 68.5055 275.93C71.7417 276.822 75.0452 277.449 78.3831 277.805Z" fill="#50661A"/>
<path d="M76.8858 277.51C76.0426 276.106 56.1896 243.016 52.9785 234.452L53.78 234.151C56.9631 242.643 77.4133 276.726 77.6192 277.069L76.8858 277.51Z" fill="#5E7C24"/>
<path d="M60.2667 216.414C59.4011 218.555 58.7393 220.774 58.29 223.04C57.8306 225.259 57.4933 227.502 57.2797 229.758C57.0604 232.013 56.9675 234.28 57.0015 236.546C57.0144 238.856 57.248 241.16 57.6992 243.426C58.569 241.286 59.2324 239.067 59.6805 236.8C60.1406 234.581 60.4764 232.338 60.6862 230.082C60.9015 227.826 60.9928 225.56 60.9598 223.294C60.9456 220.984 60.7135 218.68 60.2667 216.414Z" fill="#5E7C24"/>
<path d="M67.8143 226.734C66.7603 228.729 65.9013 230.822 65.2493 232.982C64.5918 235.093 64.0538 237.24 63.6378 239.412C63.2163 241.583 62.9193 243.777 62.7482 245.982C62.553 248.23 62.5776 250.492 62.8218 252.736C63.8797 250.742 64.7403 248.65 65.3914 246.489C66.0492 244.378 66.5857 242.231 66.9983 240.058C67.4162 237.886 67.7116 235.692 67.8832 233.488C68.0773 231.239 68.0542 228.978 67.8143 226.734Z" fill="#5E7C24"/>
<path d="M71.9728 238.75C71.0447 240.604 70.3128 242.55 69.7893 244.557C69.2607 246.511 68.8527 248.496 68.5676 250.501C68.2771 252.505 68.112 254.525 68.0733 256.549C68.0133 258.622 68.173 260.696 68.5497 262.736C69.4819 260.883 70.2154 258.937 70.7378 256.929C71.2671 254.975 71.6736 252.989 71.9549 250.984C72.2418 248.98 72.4053 246.96 72.4445 244.936C72.5035 242.863 72.3454 240.789 71.9728 238.75Z" fill="#5E7C24"/>
<path d="M77.2095 250.743C76.2776 252.296 75.5344 253.955 74.9955 255.685C74.4563 257.355 74.0363 259.062 73.7387 260.792C73.4353 262.521 73.2573 264.269 73.2059 266.024C73.1326 267.835 73.2781 269.647 73.6392 271.423C74.575 269.871 75.32 268.212 75.8578 266.482C76.3977 264.812 76.8163 263.105 77.1104 261.374C77.4098 259.644 77.5863 257.896 77.6386 256.141C77.7107 254.331 77.5666 252.519 77.2095 250.743Z" fill="#5E7C24"/>
<path d="M81.8304 258.239C80.8797 259.586 80.095 261.043 79.4931 262.578C78.9033 264.044 78.4124 265.548 78.0237 267.079C77.6385 268.599 77.3422 270.141 77.1362 271.695C77.0401 272.479 76.952 273.258 76.8935 274.052C76.8632 274.861 76.7769 275.668 76.6353 276.465C76.8329 276.359 77.0228 276.239 77.2035 276.106L77.6648 275.644C77.9588 275.329 78.2285 274.991 78.4716 274.635C78.94 273.948 79.3547 273.226 79.7121 272.476C80.4063 271.017 80.9516 269.491 81.3399 267.923C81.7358 266.368 81.9923 264.782 82.1061 263.182C82.2443 261.529 82.1515 259.866 81.8304 258.239Z" fill="#5E7C24"/>
<path d="M55.7786 239.735C54.2257 238.032 52.4784 236.517 50.5726 235.22C48.7364 233.944 46.8137 232.798 44.8184 231.789C42.8261 230.774 40.7645 229.901 38.6489 229.177C36.476 228.407 34.2193 227.897 31.9263 227.659C33.4757 229.366 35.2223 230.883 37.1293 232.179C38.9652 233.455 40.889 234.6 42.8864 235.605C44.8808 236.616 46.9431 237.487 49.0584 238.212C51.2312 238.981 53.4867 239.492 55.7786 239.735Z" fill="#5E7C24"/>
<path d="M60.8928 249.288C58.907 247.663 56.7546 246.254 54.4718 245.084C52.2548 243.921 49.9678 242.896 47.6238 242.016C45.2824 241.13 42.8873 240.393 40.4528 239.809C37.9641 239.185 35.4156 238.83 32.8511 238.75C34.8341 240.378 36.9858 241.789 39.2696 242.959C41.4861 244.123 43.7741 245.146 46.1197 246.021C48.4628 246.902 50.8584 247.638 53.2927 248.222C55.7814 248.845 58.3289 249.202 60.8928 249.288Z" fill="#5E7C24"/>
<path d="M66.9122 259.906C65.1441 258.336 63.2021 256.975 61.1242 255.847C59.1161 254.732 57.0348 253.753 54.8946 252.919C52.757 252.079 50.564 251.387 48.3311 250.848C46.0386 250.268 43.6866 249.956 41.3223 249.918C43.0875 251.491 45.0291 252.855 47.1082 253.982C49.1158 255.098 51.198 256.074 53.3399 256.904C55.4793 257.74 57.6728 258.431 59.9055 258.971C62.1977 259.549 64.5486 259.863 66.9122 259.906Z" fill="#5E7C24"/>
<path d="M71.6692 268.078C70.129 266.744 68.4198 265.618 66.5856 264.73C64.8309 263.857 63.0098 263.124 61.1394 262.54C59.2708 261.949 57.3575 261.509 55.4182 261.226C53.4045 260.909 51.3575 260.86 49.3311 261.083C50.8687 262.422 52.5777 263.55 54.413 264.437C56.1673 265.311 57.9893 266.041 59.8613 266.622C61.7312 267.208 63.6447 267.646 65.5837 267.929C67.5969 268.246 69.6429 268.296 71.6692 268.078Z" fill="#5E7C24"/>
<path d="M75.4248 275.412C73.7315 273.786 71.8565 272.361 69.8369 271.165C67.8871 269.985 65.8591 268.938 63.7669 268.033C61.6774 267.122 59.5271 266.358 57.3316 265.745C55.0774 265.089 52.7544 264.698 50.4097 264.581C52.0998 266.21 53.9742 267.637 55.995 268.832C57.9444 270.014 59.9735 271.059 62.0676 271.959C64.1589 272.866 66.3097 273.629 68.5049 274.242C70.7589 274.897 73.0809 275.289 75.4248 275.412Z" fill="#5E7C24"/>
<path d="M54.1173 235.669C54.4298 233.387 54.3735 231.07 53.9506 228.806C53.5784 226.671 52.9926 224.579 52.2021 222.562C51.419 220.542 50.4316 218.607 49.2552 216.787C48.0291 214.836 46.4943 213.097 44.7107 211.638C44.3913 213.921 44.4449 216.24 44.8694 218.505C45.2409 220.639 45.8293 222.73 46.6255 224.745C47.4146 226.763 48.4045 228.697 49.5803 230.517C50.8069 232.466 52.3388 234.206 54.1173 235.669Z" fill="#5E7C24"/>
<path d="M187.471 76.3445C178.713 76.8659 169.953 77.2764 161.191 77.576C152.429 77.8998 143.665 78.1217 134.9 78.324C126.135 78.4936 117.37 78.6412 108.602 78.6876C99.8346 78.7584 91.065 78.7166 82.293 78.5621C91.0506 78.0388 99.8107 77.6274 108.573 77.328C117.335 77.0046 126.099 76.7827 134.864 76.5826C143.629 76.4151 152.395 76.2675 161.162 76.2215C169.93 76.1515 178.699 76.1925 187.471 76.3445Z" fill="#EBC136"/>
<path d="M116.936 102.694C108.178 103.215 99.4176 103.626 90.6552 103.926C81.8933 104.249 73.1292 104.471 64.3647 104.673C55.5996 104.843 46.834 104.991 38.0662 105.037C29.299 105.108 20.5293 105.066 11.7573 104.912C20.515 104.388 29.2751 103.977 38.0376 103.677C46.7995 103.354 55.5635 103.132 64.3281 102.932C73.0933 102.765 81.8589 102.617 90.6267 102.571C99.394 102.501 108.164 102.542 116.936 102.694Z" fill="#EBC136"/>
<path d="M147.083 132.183C138.325 132.704 129.565 133.115 120.803 133.414C112.041 133.738 103.277 133.96 94.5122 134.162C85.7471 134.332 76.9814 134.479 68.2137 134.526C59.4464 134.597 50.6768 134.555 41.9048 134.4C50.6625 133.877 59.4226 133.465 68.185 133.166C76.947 132.843 85.711 132.621 94.4755 132.421C103.241 132.253 112.006 132.105 120.774 132.06C129.541 131.99 138.311 132.03 147.083 132.183Z" fill="#EBC136"/>
<path d="M464.732 279.909H34.4601C34.2291 279.909 34.0075 279.817 33.8441 279.653C33.6807 279.49 33.5889 279.268 33.5889 279.037C33.5889 278.806 33.6807 278.585 33.8441 278.421C34.0075 278.258 34.2291 278.166 34.4601 278.166H464.732C464.963 278.166 465.184 278.258 465.348 278.421C465.511 278.585 465.603 278.806 465.603 279.037C465.603 279.268 465.511 279.49 465.348 279.653C465.184 279.817 464.963 279.909 464.732 279.909Z" fill="#8C8686"/>
<path d="M319.484 125.829C327.893 125.829 327.907 112.758 319.484 112.758C311.075 112.758 311.061 125.829 319.484 125.829Z" fill="#6F56A5"/>
<path d="M248.193 16.1376C250.838 15.7118 253.546 15.9206 256.094 16.747C257.288 17.1591 261.657 18.6664 263.815 22.7727C264.635 24.3321 264.833 26.2148 265.231 29.9803C265.478 32.3322 266.399 34.0104 266.422 36.8813C266.395 39.2079 266.033 41.5183 265.348 43.7418C264.322 47.2214 265.019 49.1874 264.498 49.8407C262.399 52.4734 255.941 50.4769 255.873 53.8896C255.832 55.9968 259.464 65.0612 259.413 67.5299C259.293 73.2824 249.639 67.3457 243.82 58.8162C243.556 58.4291 239.609 56.1634 239.988 52.4338C240.191 50.4414 241.801 41.087 241.628 39.8833C241.004 35.5327 238.805 35.0202 237.03 29.7699C236.549 28.452 236.415 27.0328 236.64 25.6481C236.866 24.2635 237.443 22.9599 238.316 21.8624C240.835 18.8548 244.331 16.8285 248.193 16.1376Z" fill="#D19E8A"/>
<path d="M264.365 34.781C264.853 34.7769 265.245 34.2811 265.239 33.6737C265.234 33.0663 264.834 32.5773 264.346 32.5814C263.857 32.5856 263.466 33.0814 263.471 33.6888C263.476 34.2962 263.876 34.7852 264.365 34.781Z" fill="#0A0709"/>
<path d="M256.392 34.85C256.881 34.8458 257.272 34.35 257.267 33.7426C257.262 33.1352 256.862 32.6462 256.374 32.6504C255.885 32.6546 255.493 33.1504 255.499 33.7578C255.504 34.3652 255.904 34.8542 256.392 34.85Z" fill="#0A0709"/>
<path d="M260.134 31.7493C260.242 31.7483 260.347 31.7159 260.437 31.6562C261.216 31.1081 262.143 30.8084 263.095 30.7965C264.048 30.7845 264.982 31.0609 265.774 31.5894C265.893 31.6768 266.042 31.7134 266.188 31.6913C266.334 31.6691 266.466 31.59 266.554 31.4712C266.641 31.3524 266.678 31.2037 266.657 31.0575C266.635 30.9114 266.556 30.7798 266.438 30.6916C265.457 30.0381 264.303 29.6922 263.124 29.6982C261.945 29.7042 260.795 30.0617 259.82 30.7251C259.72 30.7916 259.644 30.8888 259.603 31.0022C259.562 31.1157 259.56 31.2392 259.595 31.3543C259.63 31.4695 259.702 31.5702 259.799 31.6414C259.896 31.7126 260.014 31.7504 260.134 31.7493Z" fill="#494752"/>
<path d="M251.87 31.8199C251.978 31.8189 252.083 31.7866 252.172 31.7269C252.954 31.1846 253.88 30.8884 254.831 30.8761C255.782 30.8639 256.715 31.1363 257.51 31.6582C257.569 31.7018 257.636 31.7335 257.707 31.7513C257.778 31.7691 257.852 31.7727 257.924 31.7619C257.997 31.7512 258.066 31.7263 258.129 31.6886C258.192 31.651 258.247 31.6013 258.29 31.5425C258.334 31.4837 258.366 31.4168 258.383 31.3458C258.401 31.2747 258.405 31.2009 258.394 31.1284C258.383 31.056 258.358 30.9863 258.321 30.9235C258.283 30.8607 258.233 30.8059 258.175 30.7623C257.193 30.1088 256.039 29.7629 254.86 29.7689C253.681 29.7748 252.531 30.1324 251.556 30.7957C251.456 30.8622 251.38 30.9595 251.339 31.0729C251.298 31.1863 251.295 31.3098 251.331 31.425C251.366 31.5402 251.438 31.6409 251.535 31.712C251.632 31.7832 251.75 31.821 251.87 31.8199Z" fill="#494752"/>
<path d="M259.376 31.9827C259.086 32.9121 259.131 33.9136 259.502 34.8136C259.824 35.7186 260.287 36.5668 260.874 37.3269L261.34 37.8485C261.397 37.9 261.443 37.9624 261.476 38.032C261.508 38.1016 261.526 38.1769 261.529 38.2536C261.495 38.6302 261.314 38.978 261.024 39.2215C260.313 39.7555 259.427 40.003 258.542 39.9149C259.002 40.0988 259.499 40.1701 259.992 40.1229C260.485 40.0757 260.96 39.9115 261.377 39.6438C261.607 39.4863 261.799 39.2803 261.941 39.0404C262.082 38.8005 262.17 38.5324 262.197 38.2551C262.199 37.9402 262.081 37.6363 261.867 37.4051L261.417 36.8781C260.866 36.1664 260.392 35.399 260.001 34.5885C259.575 33.7871 259.359 32.8903 259.376 31.9827Z" fill="#B5806D"/>
<path d="M244.889 32.4787C244.543 32.3788 244.174 32.4007 243.843 32.5409C243.512 32.6716 243.213 32.8693 242.962 33.1217C242.719 33.3694 242.52 33.6574 242.375 33.973C242.23 34.2867 242.149 34.6263 242.138 34.9718C242.384 34.7537 242.617 34.5209 242.835 34.2747C243.056 34.0543 243.244 33.8193 243.461 33.6191C243.666 33.4076 243.883 33.2073 244.11 33.0192C244.353 32.8165 244.614 32.6356 244.889 32.4787Z" fill="#B5806D"/>
<path d="M244.21 37.071C244.439 36.7705 244.6 36.4248 244.685 36.0569C244.77 35.689 244.775 35.3073 244.7 34.9371C244.637 34.5629 244.5 34.2049 244.297 33.8839C244.101 33.5624 243.831 33.2929 243.508 33.0981C243.711 33.7411 243.878 34.3952 244.006 35.0571C244.114 35.7238 244.182 36.3963 244.21 37.071Z" fill="#B5806D"/>
<path d="M249.654 41.1237C249.654 41.1237 248.135 34.8115 248.388 32.9985C248.74 30.4721 248.917 29.209 248.606 28.1848C248.108 26.5453 248.907 26.3245 249.922 24.5494C250.875 22.8834 253.881 24.1997 254.626 23.917C256.717 23.1235 256.632 22.2408 258.05 22.1404C259.503 22.0376 260.568 21.6441 261.515 22.5747C262.482 23.5245 264.262 26.056 264.692 25.6105C265.596 24.3851 266.145 22.9344 266.278 21.4175C266.276 19.9236 265.91 18.4526 265.212 17.1321C264.861 16.3688 263.554 13.5281 260.878 12.7896C259.337 12.3642 259.048 13.1073 255.724 13.3326C252.276 13.5664 252.162 12.7958 250.36 13.3248C248.365 13.9104 248.449 14.8702 245.048 16.7664C243.92 17.3751 242.76 17.9221 241.572 18.4049C237.297 20.2586 236.734 19.9729 235.755 20.9349C233.645 23.0091 234.023 26.5412 234.114 27.3944C234.371 29.7972 235.316 30.5119 237.391 34.3468C240.676 40.4199 240.049 42.989 241.242 43.8343C241.827 44.2489 244.875 42.0422 244.852 40.9678C244.821 39.5594 243.803 39.1236 242.59 37.098C241.744 35.6823 240.527 33.6498 241.202 31.7922C241.61 30.6693 242.078 30.9715 243.239 31.0692C244.814 31.2017 245.607 33.3877 246.251 34.9915C246.717 36.1522 246.924 37.4003 246.858 38.6491C246.715 41.4352 250.206 42.2278 249.654 41.1237Z" fill="#2E2C33"/>
<path d="M256.74 43.8173C256.74 43.8173 260.251 47.0363 263.337 43.761L256.74 43.8173Z" fill="#9D6D5C"/>
<path d="M257.523 60.1836C257.523 60.1836 263.692 78.0237 240.103 51.5224L229.854 60.0341C227.73 61.8284 226.265 64.2798 225.691 67.0004C225.189 70.86 224.687 74.7195 224.184 78.5792C222.275 93.2526 222.262 108.111 224.145 122.788C224.653 126.746 225.161 130.704 225.668 134.662L269.739 140.714C267.26 132.226 265.796 123.474 265.378 114.64C264.882 104.067 266.191 99.5689 265.691 90.7994C265.003 80.157 262.228 69.7541 257.523 60.1836Z" fill="#FFBA55"/>
<path d="M263.951 131.375C263.153 130.918 262.34 130.503 261.538 130.067L259.185 128.683C257.653 127.718 256.188 126.65 254.802 125.484C253.414 124.331 252.159 123.028 251.059 121.597C250.516 120.876 250.032 120.112 249.613 119.313C249.167 118.52 248.827 117.671 248.604 116.789C248.857 118.632 249.547 120.388 250.616 121.91C251.658 123.449 252.914 124.833 254.345 126.02C255.76 127.211 257.29 128.259 258.912 129.148L261.385 130.375C262.243 130.709 263.09 131.063 263.951 131.375Z" fill="#E6952A"/>
<path d="M251.632 49.4814C254.537 51.4865 260.103 51.3516 260.103 51.3516L260.121 51.4812C257.959 51.7629 255.911 51.9755 255.873 53.8894C255.975 54.9602 256.203 56.0153 256.551 57.0331C252.75 54.8914 251.632 49.4814 251.632 49.4814Z" fill="#B5806D"/>
<path d="M309.239 204.076L311.598 216.026L334.724 219.751L303.8 229.143L297.291 207.704L309.239 204.076Z" fill="#D19E8A"/>
<path d="M338.149 219.863L338.127 219.792C337.963 219.25 337.651 218.764 337.226 218.388C336.801 218.013 336.281 217.763 335.723 217.666L311.621 213.478C311.385 213.437 311.143 213.48 310.936 213.6C310.728 213.72 310.57 213.909 310.488 214.134L308.054 220.813C307.967 221.05 307.796 221.247 307.573 221.365C307.35 221.483 307.092 221.515 306.847 221.453L301.178 220.032C301.003 219.988 300.819 219.992 300.646 220.042C300.472 220.092 300.315 220.188 300.191 220.318C300.066 220.449 299.979 220.611 299.937 220.786C299.896 220.962 299.901 221.145 299.954 221.318L302.774 230.606C302.852 230.865 303.03 231.082 303.269 231.21C303.508 231.337 303.787 231.364 304.046 231.286L337.469 221.136C337.728 221.057 337.945 220.879 338.072 220.64C338.2 220.401 338.227 220.122 338.149 219.863Z" fill="#251D1B"/>
<path d="M224.826 125.969C224.826 125.969 217.784 157.187 231.242 156.627H282.407L296.191 212.264C296.191 212.264 301.49 214.426 306.091 213.463C309.251 212.801 311.974 209.786 313.867 208.244C313.867 208.244 303.797 128.48 284.748 126.058C260.986 123.037 224.826 125.969 224.826 125.969Z" fill="#808B49"/>
<path d="M282.407 156.627C283.587 155.146 284.64 153.569 285.558 151.913C285.986 151.096 286.425 150.279 286.809 149.417C287.215 148.561 287.563 147.675 288.03 146.766C288.16 147.769 288.111 148.786 287.885 149.772C287.677 150.767 287.321 151.726 286.829 152.615C286.338 153.51 285.712 154.322 284.971 155.024C284.251 155.748 283.373 156.296 282.407 156.627Z" fill="#5E7C24"/>
<path d="M241.478 71.4081C241.478 71.4081 243.474 66.6504 269.597 104.173L259.671 117.057C259.671 117.057 245.26 105.196 238.732 94.9575" fill="#FFBA55"/>
<path d="M324.662 108.837L347.702 97.8462L348.884 123.03L326.73 115.859L324.662 108.837Z" fill="#8E6CD8"/>
<path d="M190.258 279.037C209.066 279.037 224.313 263.747 224.313 244.886C224.313 226.024 209.066 210.734 190.258 210.734C171.45 210.734 156.203 226.024 156.203 244.886C156.203 263.747 171.45 279.037 190.258 279.037Z" fill="#1E1D22"/>
<path d="M190.258 262.61C200.019 262.61 207.932 254.674 207.932 244.886C207.932 235.097 200.019 227.162 190.258 227.162C180.497 227.162 172.583 235.097 172.583 244.886C172.583 254.674 180.497 262.61 190.258 262.61Z" fill="#848384"/>
<path d="M189.586 249.326C192.919 249.326 192.924 244.146 189.586 244.146C186.253 244.146 186.247 249.326 189.586 249.326Z" fill="white"/>
<path d="M375.034 279.037C393.842 279.037 409.089 263.747 409.089 244.886C409.089 226.024 393.842 210.734 375.034 210.734C356.226 210.734 340.979 226.024 340.979 244.886C340.979 263.747 356.226 279.037 375.034 279.037Z" fill="#1E1D22"/>
<path d="M375.034 262.61C384.795 262.61 392.708 254.674 392.708 244.886C392.708 235.097 384.795 227.162 375.034 227.162C365.272 227.162 357.359 235.097 357.359 244.886C357.359 254.674 365.272 262.61 375.034 262.61Z" fill="#848384"/>
<path d="M374.361 251.964C381.089 251.964 381.1 241.508 374.361 241.508C367.634 241.508 367.623 251.964 374.361 251.964Z" fill="#1E1D22"/>
<path d="M418.573 240.995C418.573 240.995 387.535 225.432 332.357 246.183H233.797C233.797 246.183 201.035 266.933 145.857 251.37C145.857 251.37 138.96 239.266 156.203 213.328C156.203 213.328 166.549 183.932 173.446 178.745L268.525 178.794C268.525 178.794 266.306 226.8 300.793 230.259C335.279 233.717 331.831 200.863 331.831 200.863L327.266 128.151C327.187 123.54 326.873 118.936 326.324 114.357C325.697 109.017 323.885 109.76 326.041 110.841C329.489 112.57 363.395 149.348 370.292 201.224C370.292 201.224 409.951 196.036 418.573 240.995Z" fill="#8E6CD8"/>
<path d="M370.292 201.224C365.203 202.545 360.347 204.638 355.891 207.43C353.705 208.802 351.634 210.35 349.699 212.059C347.756 213.741 345.977 215.605 344.387 217.624C342.758 219.617 341.308 221.749 340.053 223.997C339.706 224.541 339.423 225.122 339.123 225.694C338.834 226.272 338.503 226.83 338.248 227.425C337.732 228.613 337.153 229.777 336.698 230.998C334.808 235.922 333.355 241.003 332.357 246.183C332.228 240.786 332.972 235.403 334.56 230.244C336.138 224.991 338.707 220.088 342.127 215.801C347.326 209.379 354.383 204.72 362.331 202.463C364.921 201.711 367.596 201.294 370.292 201.224Z" fill="#6F56A5"/>
<path d="M233.797 246.183C236.857 241.501 239.248 236.414 240.901 231.07C242.511 225.802 243.197 220.176 241.944 214.964C240.621 209.756 237.43 205.216 232.977 202.208C232.704 202.014 232.449 201.796 232.162 201.619L231.301 201.089C230.722 200.741 230.17 200.355 229.572 200.037C228.349 199.44 227.194 198.744 225.899 198.253L224 197.454C223.387 197.199 222.762 196.976 222.126 196.785C220.84 196.385 219.516 196.055 218.183 195.773C212.807 194.648 207.301 194.276 201.823 194.666C199.075 194.848 196.341 195.193 193.634 195.7C190.924 196.211 188.252 196.916 185.597 197.689C174.971 201.171 165.027 206.462 156.203 213.328L159.347 210.508L162.638 207.852L166.045 205.334C167.22 204.55 168.382 203.74 169.574 202.974C174.395 199.95 179.529 197.456 184.886 195.536C190.292 193.638 195.914 192.425 201.621 191.923C207.363 191.443 213.143 191.784 218.789 192.934C220.201 193.243 221.602 193.604 222.995 194.05C223.681 194.271 224.407 194.518 225.081 194.813L227.058 195.665C228.39 196.184 229.653 196.944 230.945 197.595C231.583 197.942 232.185 198.364 232.806 198.745C233.435 199.12 234.036 199.54 234.605 200C239.49 203.457 242.897 208.625 244.149 214.478C244.707 217.352 244.785 220.299 244.379 223.199C243.979 226.046 243.262 228.838 242.241 231.525C241.217 234.176 239.99 236.742 238.569 239.203C237.177 241.659 235.58 243.994 233.797 246.183Z" fill="#6F56A5"/>
<path d="M169.671 180.113H263.763C269.477 180.113 274.109 174.855 274.109 168.37C274.109 161.885 269.477 156.627 263.763 156.627H169.671C163.957 156.627 159.325 161.885 159.325 168.37C159.325 174.855 163.957 180.113 169.671 180.113Z" fill="#6F56A5"/>
<path d="M222.417 208.244C220.85 210.089 219.088 211.758 217.16 213.221C215.245 214.708 213.23 216.062 211.129 217.273C210.101 217.924 209.011 218.452 207.935 219.013C206.866 219.591 205.754 220.069 204.651 220.576C204.101 220.832 203.543 221.069 202.986 221.31L201.287 221.956C200.148 222.369 199.027 222.839 197.873 223.205C193.269 224.7 188.545 225.79 183.752 226.464C181.372 226.858 178.95 226.956 176.558 227.17C174.15 227.245 171.741 227.248 169.342 227.162C171.695 226.604 174.048 226.222 176.382 225.754L179.867 224.999C181.026 224.748 182.194 224.554 183.336 224.236C184.484 223.942 185.631 223.66 186.783 223.403C187.94 223.167 189.06 222.78 190.198 222.475C191.326 222.137 192.486 221.907 193.599 221.522L196.961 220.448C198.09 220.114 199.182 219.678 200.295 219.299L201.955 218.705C202.499 218.482 203.04 218.255 203.59 218.046C205.799 217.233 207.93 216.24 210.077 215.274C211.137 214.764 212.21 214.27 213.249 213.715L214.827 212.908L216.372 212.041C218.459 210.894 220.477 209.627 222.417 208.244Z" fill="#6F56A5"/>
<path d="M226.45 219.65C224.884 221.495 223.121 223.164 221.193 224.627C219.278 226.114 217.263 227.468 215.162 228.679C214.135 229.33 213.045 229.858 211.968 230.419C210.899 230.997 209.787 231.475 208.684 231.982C208.134 232.238 207.576 232.475 207.019 232.716L205.32 233.362C204.182 233.775 203.06 234.245 201.906 234.611C197.303 236.106 192.578 237.196 187.785 237.87C185.405 238.264 182.983 238.362 180.592 238.576C178.183 238.651 175.774 238.654 173.375 238.568C175.728 238.01 178.081 237.628 180.415 237.16L183.9 236.405C185.06 236.154 186.227 235.96 187.37 235.642C188.517 235.348 189.664 235.066 190.816 234.809C191.973 234.573 193.093 234.186 194.231 233.881C195.359 233.543 196.519 233.313 197.632 232.928L200.994 231.854C202.123 231.52 203.215 231.084 204.328 230.705L205.989 230.111C206.532 229.888 207.073 229.661 207.623 229.452C209.832 228.639 211.963 227.646 214.11 226.68C215.17 226.17 216.243 225.676 217.282 225.121L218.86 224.314L220.405 223.447C222.492 222.3 224.511 221.033 226.45 219.65Z" fill="#6F56A5"/>
<path d="M348.763 123.035C350.923 122.934 352.409 117.214 352.082 110.26C351.756 103.305 349.741 97.7501 347.581 97.8514C345.422 97.9528 343.936 103.673 344.262 110.627C344.589 117.581 346.604 123.137 348.763 123.035Z" fill="#FFBA55"/>
<path d="M347.581 97.8516C347.312 97.9282 347.063 98.0631 346.851 98.2467C346.64 98.4303 346.471 98.6582 346.357 98.9142C346.09 99.4039 345.884 99.9245 345.743 100.464C345.45 101.554 345.248 102.666 345.137 103.789C344.724 108.318 344.939 112.882 345.776 117.352C345.991 118.46 346.297 119.548 346.69 120.605C346.881 121.13 347.134 121.629 347.446 122.091C347.583 122.335 347.772 122.546 348 122.71C348.227 122.873 348.488 122.984 348.763 123.035C348.459 123.055 348.154 123.005 347.873 122.887C347.592 122.769 347.342 122.587 347.143 122.357C346.715 121.929 346.347 121.445 346.05 120.919C345.47 119.878 345.009 118.775 344.677 117.63C343.379 113.072 343.155 108.275 344.021 103.616C344.245 102.445 344.6 101.304 345.08 100.213C345.326 99.6611 345.647 99.1451 346.033 98.6795C346.209 98.431 346.441 98.2268 346.71 98.0832C346.978 97.9395 347.277 97.8602 347.581 97.8516Z" fill="#E6952A"/>
<path d="M338.255 124.5C337.179 123.555 336.19 122.563 335.219 121.562L332.339 118.561C331.394 117.556 330.431 116.576 329.438 115.646C328.945 115.182 328.425 114.749 327.879 114.349C327.345 113.923 326.713 113.637 326.041 113.519C326.766 113.343 327.53 113.412 328.211 113.718C328.89 113.991 329.537 114.339 330.138 114.755C331.317 115.573 332.406 116.512 333.388 117.557C334.363 118.587 335.265 119.684 336.086 120.839C336.924 121.987 337.65 123.213 338.255 124.5Z" fill="#6F56A5"/>
<path d="M205.809 153.798H154.033C153.286 153.798 152.57 153.501 152.041 152.973C151.513 152.444 151.216 151.728 151.216 150.981V113.055H208.625V150.981C208.625 151.728 208.329 152.444 207.8 152.973C207.272 153.501 206.556 153.798 205.809 153.798Z" fill="#584432"/>
<path d="M186.504 124.79C186.319 124.506 186.048 124.498 185.739 124.489C185.704 124.488 185.669 124.487 185.633 124.485C185.606 124.484 185.575 124.484 185.544 124.485C185.419 124.487 185.272 124.489 185.199 124.384C185.113 124.262 185.121 124.027 185.128 123.833C185.13 123.771 185.132 123.714 185.131 123.666C185.119 123.214 185.094 122.735 184.919 122.575C184.788 122.455 184.394 122.471 184.032 122.487C183.914 122.492 183.8 122.496 183.698 122.496H175.975C175.819 122.496 175.656 122.484 175.496 122.471C175.184 122.447 174.883 122.424 174.669 122.496C174.358 122.602 174.337 123.159 174.318 123.684L174.316 123.712C174.3 124.145 174.192 124.479 173.836 124.445C173.422 124.407 173.01 124.395 172.823 124.769C172.602 125.212 172.648 125.675 172.729 126.506C172.741 126.624 172.754 126.75 172.766 126.885H186.623C186.631 126.787 186.64 126.69 186.648 126.594C186.713 125.847 186.769 125.196 186.504 124.79Z" fill="#785A3F"/>
<path fill-rule="evenodd" clip-rule="evenodd" d="M173.845 127.709C174.062 130.634 174.276 133.564 174.49 136.493L174.49 136.495C174.606 138.085 174.722 139.676 174.839 141.266H175.281C175.311 141.515 175.346 141.822 175.382 142.146C175.456 142.804 175.537 143.53 175.606 143.977H175.655C176.105 143.812 179.219 142.483 179.22 137.19C179.219 137.175 179.22 137.16 179.221 137.145H178.452C178.415 137.145 178.379 137.132 178.35 137.11C178.32 137.087 178.299 137.056 178.29 137.02C178.215 136.835 178.154 136.645 178.109 136.451C177.656 136.706 177.297 137.096 177.082 137.565C176.878 137.084 176.851 136.549 177.007 136.051C177.162 135.554 177.489 135.126 177.932 134.842C177.937 133.298 178.516 131.809 179.559 130.658L179.575 130.644C179.605 130.617 179.644 130.603 179.684 130.602C179.707 130.603 179.73 130.608 179.752 130.617C179.773 130.627 179.792 130.64 179.808 130.658C180.863 131.811 181.439 133.314 181.421 134.867C181.871 135.143 182.205 135.57 182.361 136.071C182.517 136.571 182.483 137.11 182.267 137.588C182.053 137.118 181.693 136.728 181.24 136.474C181.212 136.662 181.161 136.846 181.088 137.022C181.063 137.097 181.012 137.145 180.961 137.145H180.141C180.142 137.154 180.143 137.163 180.144 137.172L180.144 137.174L180.144 137.179C180.145 137.186 180.145 137.194 180.144 137.202C180.155 142.646 183.466 143.882 183.745 143.977H183.84C183.865 143.548 183.944 142.956 184.021 142.379C184.075 141.982 184.127 141.591 184.16 141.266H184.607C184.75 139.263 184.897 137.266 185.045 135.269L185.045 135.268L185.045 135.267C185.233 132.712 185.421 130.158 185.601 127.591H173.874C173.84 127.598 173.842 127.653 173.845 127.709ZM179.684 130.602L179.683 130.602H179.685L179.684 130.602Z" fill="#785A3F"/>
<path d="M215.576 103.911V109.068C215.625 110.073 215.273 111.057 214.599 111.805C213.924 112.552 212.982 113.002 211.977 113.057H147.862C146.858 113.002 145.916 112.551 145.242 111.804C144.569 111.056 144.219 110.073 144.269 109.068V103.911C144.22 102.908 144.571 101.925 145.244 101.179C145.918 100.433 146.859 99.9839 147.862 99.9296H211.977C212.981 99.9836 213.923 100.433 214.597 101.178C215.271 101.924 215.623 102.907 215.576 103.911Z" fill="#785A3F"/>
<path d="M207.991 153.823H173.843L166.141 145.724C166.027 145.598 165.886 145.498 165.729 145.432C165.572 145.365 165.402 145.333 165.232 145.338C165.062 145.343 164.894 145.385 164.741 145.461C164.589 145.536 164.454 145.644 164.347 145.776C164.113 146.058 163.99 146.414 163.998 146.78C164.007 147.145 164.147 147.496 164.394 147.766L170.153 153.823H160.966V147.431C160.984 147.254 160.965 147.074 160.909 146.904C160.854 146.734 160.763 146.578 160.643 146.445C160.524 146.313 160.378 146.207 160.214 146.134C160.051 146.061 159.874 146.024 159.696 146.024C159.517 146.024 159.341 146.061 159.177 146.134C159.014 146.207 158.868 146.313 158.748 146.445C158.629 146.578 158.538 146.734 158.483 146.904C158.427 147.074 158.408 147.254 158.426 147.431V153.823H152.154C151.805 153.859 151.483 154.022 151.248 154.282C151.014 154.542 150.884 154.88 150.884 155.23C150.884 155.58 151.014 155.918 151.248 156.178C151.483 156.437 151.805 156.601 152.154 156.637H158.426V163.029C158.408 163.206 158.427 163.386 158.483 163.556C158.538 163.726 158.629 163.882 158.748 164.015C158.868 164.147 159.014 164.253 159.177 164.326C159.341 164.398 159.517 164.436 159.696 164.436C159.874 164.436 160.051 164.398 160.214 164.326C160.378 164.253 160.524 164.147 160.643 164.015C160.763 163.882 160.854 163.726 160.909 163.556C160.965 163.386 160.984 163.206 160.966 163.029V156.637H172.829L179.226 163.364C179.341 163.49 179.482 163.589 179.639 163.656C179.796 163.723 179.965 163.754 180.135 163.749C180.306 163.745 180.473 163.703 180.626 163.627C180.779 163.552 180.913 163.444 181.021 163.312C181.254 163.03 181.378 162.674 181.369 162.308C181.361 161.943 181.22 161.592 180.974 161.322L176.519 156.637H207.991C208.339 156.601 208.662 156.437 208.896 156.178C209.131 155.918 209.261 155.58 209.261 155.23C209.261 154.88 209.131 154.542 208.896 154.282C208.662 154.022 208.339 153.859 207.991 153.823Z" fill="#464646"/>
<path d="M269.303 104.903L308.61 110.144C308.61 110.144 324.664 104.186 327.934 112.635C328.366 113.802 328.378 115.083 327.969 116.259C326.989 119.198 324.671 125.002 322.973 120.159L321.227 115.18C321.227 115.18 315.202 119.353 309.38 117.284C307.277 116.536 279.127 122.02 263.951 118.318L259.671 117.057L269.303 104.903Z" fill="#D19E8A"/>
<path d="M241.478 71.408C241.603 71.1936 241.884 71.1934 242.103 71.2154C242.331 71.2583 242.554 71.3226 242.77 71.4073C243.186 71.6066 243.586 71.8395 243.964 72.1036C244.35 72.3551 244.718 72.6328 245.066 72.9348C245.415 73.2333 245.791 73.5066 246.117 73.8281C247.479 75.0616 248.768 76.372 250.019 77.7136C252.516 80.4047 254.816 83.2588 257.123 86.1053C259.413 88.9651 261.625 91.8856 263.79 94.8374C265.991 97.7649 268.054 100.787 270.189 103.761L270.496 104.189L270.168 104.614L265.194 111.046L260.191 117.457L259.767 118L259.254 117.563C257.297 115.899 255.406 114.192 253.564 112.42C251.722 110.65 249.912 108.849 248.16 106.991C246.407 105.134 244.708 103.224 243.123 101.22C241.519 99.2343 240.052 97.1419 238.732 94.9573C240.215 97.0218 241.808 99.0049 243.504 100.898C245.203 102.784 246.981 104.596 248.772 106.392C250.577 108.175 252.438 109.901 254.328 111.593C256.227 113.271 258.138 114.952 260.088 116.55L259.151 116.656L264.074 110.184L269.025 103.733L269.005 104.585C266.902 101.6 264.83 98.5915 262.695 95.6309C260.591 92.6468 258.422 89.7122 256.263 86.7694C254.073 83.853 251.864 80.944 249.504 78.1684C248.34 76.7666 247.138 75.3958 245.861 74.0989C245.555 73.76 245.203 73.4737 244.875 73.1582C244.549 72.8426 244.204 72.5476 243.841 72.2749C243.49 71.9875 243.117 71.7292 242.724 71.5026C242.522 71.4052 242.312 71.3266 242.095 71.2676C241.886 71.2312 241.618 71.2063 241.478 71.408Z" fill="#E6952A"/>
<path d="M159.747 156.155C160.007 156.146 160.253 156.037 160.433 155.85C160.614 155.663 160.715 155.413 160.715 155.153C160.715 154.893 160.614 154.643 160.433 154.456C160.253 154.269 160.007 154.159 159.747 154.15C159.487 154.159 159.241 154.269 159.06 154.456C158.879 154.643 158.778 154.893 158.778 155.153C158.778 155.413 158.879 155.663 159.06 155.85C159.241 156.037 159.487 156.146 159.747 156.155Z" fill="#616161"/>
<path d="M159.747 163.689C160.007 163.68 160.253 163.571 160.433 163.384C160.614 163.197 160.715 162.947 160.715 162.687C160.715 162.427 160.614 162.177 160.433 161.99C160.253 161.803 160.007 161.693 159.747 161.684C159.487 161.693 159.241 161.803 159.06 161.99C158.879 162.177 158.778 162.427 158.778 162.687C158.778 162.947 158.879 163.197 159.06 163.384C159.241 163.571 159.487 163.68 159.747 163.689Z" fill="#616161"/>
<path d="M165.46 147.956C165.72 147.947 165.966 147.838 166.147 147.65C166.327 147.463 166.428 147.214 166.428 146.954C166.428 146.693 166.327 146.444 166.147 146.257C165.966 146.07 165.72 145.96 165.46 145.951C165.2 145.96 164.954 146.07 164.773 146.257C164.593 146.444 164.492 146.693 164.492 146.954C164.492 147.214 164.593 147.463 164.773 147.65C164.954 147.838 165.2 147.947 165.46 147.956Z" fill="#616161"/>
<path d="M159.747 148.642C160.006 148.633 160.253 148.523 160.433 148.336C160.614 148.149 160.715 147.899 160.715 147.639C160.715 147.379 160.614 147.13 160.433 146.943C160.253 146.756 160.006 146.646 159.747 146.637C159.487 146.646 159.241 146.756 159.06 146.943C158.879 147.13 158.778 147.379 158.778 147.639C158.778 147.899 158.879 148.149 159.06 148.336C159.241 148.523 159.487 148.633 159.747 148.642Z" fill="#616161"/>
<path d="M172.774 156.155C173.034 156.146 173.28 156.037 173.461 155.85C173.641 155.663 173.742 155.413 173.742 155.153C173.742 154.893 173.641 154.643 173.461 154.456C173.28 154.269 173.034 154.159 172.774 154.15C172.514 154.159 172.268 154.269 172.087 154.456C171.907 154.643 171.806 154.893 171.806 155.153C171.806 155.413 171.907 155.663 172.087 155.85C172.268 156.037 172.514 156.146 172.774 156.155Z" fill="#616161"/>
<path d="M179.921 155.889C180.181 155.88 180.427 155.77 180.608 155.583C180.788 155.396 180.889 155.147 180.889 154.887C180.889 154.626 180.788 154.377 180.608 154.19C180.427 154.003 180.181 153.893 179.921 153.884C179.661 153.893 179.415 154.003 179.234 154.19C179.054 154.377 178.953 154.626 178.953 154.887C178.953 155.147 179.054 155.396 179.234 155.583C179.415 155.77 179.661 155.88 179.921 155.889Z" fill="#616161"/>
<path d="M179.921 163.225C180.181 163.216 180.427 163.107 180.608 162.92C180.788 162.733 180.889 162.483 180.889 162.223C180.889 161.963 180.788 161.713 180.608 161.526C180.427 161.339 180.181 161.229 179.921 161.22C179.661 161.229 179.415 161.339 179.234 161.526C179.054 161.713 178.953 161.963 178.953 162.223C178.953 162.483 179.054 162.733 179.234 162.92C179.415 163.107 179.661 163.216 179.921 163.225Z" fill="#616161"/>
<path d="M152.814 156.155C153.074 156.146 153.32 156.037 153.501 155.85C153.681 155.663 153.782 155.413 153.782 155.153C153.782 154.893 153.681 154.643 153.501 154.456C153.32 154.269 153.074 154.159 152.814 154.15C152.554 154.159 152.308 154.269 152.127 154.456C151.947 154.643 151.846 154.893 151.846 155.153C151.846 155.413 151.947 155.663 152.127 155.85C152.308 156.037 152.554 156.146 152.814 156.155Z" fill="#616161"/>
<path d="M206.904 156.155C207.164 156.146 207.41 156.037 207.591 155.85C207.771 155.663 207.872 155.413 207.872 155.153C207.872 154.893 207.771 154.643 207.591 154.456C207.41 154.269 207.164 154.159 206.904 154.15C206.644 154.159 206.398 154.269 206.217 154.456C206.037 154.643 205.936 154.893 205.936 155.153C205.936 155.413 206.037 155.663 206.217 155.85C206.398 156.037 206.644 156.146 206.904 156.155Z" fill="#616161"/>
</svg>
