<svg width="148" height="98" viewBox="0 0 148 98" fill="none" xmlns="http://www.w3.org/2000/svg">
<g clip-path="url(#clip0_406_119)">
<path d="M70.2352 18.7646L70.2353 18.7647C70.919 19.4483 70.919 20.5516 70.2353 21.2353L70.2353 21.2353L55.2376 36.2353C54.554 36.9189 53.4461 36.9189 52.7626 36.2353C52.0791 35.5517 52.0791 34.4483 52.7626 33.7646L52.7626 33.7646L65.9914 20.5302L66.5214 19.9999L65.9913 19.4697L52.7626 6.23771C52.7626 6.2377 52.7626 6.23769 52.7626 6.23769C52.0792 5.55408 52.0791 4.44622 52.7623 3.76252C52.7624 3.76249 52.7624 3.76245 52.7624 3.76242C52.7625 3.76237 52.7625 3.76232 52.7626 3.76226C53.4461 3.07945 54.5541 3.07945 55.2378 3.76248C55.2378 3.76251 55.2378 3.76253 55.2379 3.76256L70.2352 18.7646ZM94 33.25C94.9686 33.25 95.75 34.0314 95.75 35C95.75 35.9686 94.9686 36.75 94 36.75H71.5C70.5314 36.75 69.75 35.9686 69.75 35C69.75 34.0314 70.5314 33.25 71.5 33.25H94Z" stroke="#3294F8" stroke-width="1.5"/>
</g>
<path d="M14.4844 78.2695V85.7578C13.375 86.7734 11.1289 87.2812 7.74609 87.2812C7.08203 87.2812 6.49609 87.2539 5.98828 87.1992C5.48828 87.1445 5.02734 87.0742 4.60547 86.9883C4.19141 86.9023 3.83594 86.7578 3.53906 86.5547C3.24219 86.3438 2.98047 86.1328 2.75391 85.9219C2.52734 85.7109 2.34375 85.4062 2.20312 85.0078C2.0625 84.6016 1.94531 84.2109 1.85156 83.8359C1.76562 83.4609 1.69922 82.957 1.65234 82.3242C1.61328 81.6914 1.58594 81.0859 1.57031 80.5078C1.55469 79.9297 1.54688 79.1875 1.54688 78.2812C1.54688 77.5078 1.55078 76.8477 1.55859 76.3008C1.57422 75.7539 1.60156 75.1953 1.64062 74.625C1.6875 74.0547 1.74609 73.582 1.81641 73.207C1.89453 72.8242 1.99609 72.4414 2.12109 72.0586C2.25391 71.668 2.40625 71.3555 2.57812 71.1211C2.75 70.8789 2.96484 70.6406 3.22266 70.4062C3.48047 70.1719 3.76562 69.9922 4.07812 69.8672C4.39844 69.7422 4.76953 69.6289 5.19141 69.5273C5.61328 69.4258 6.07422 69.3594 6.57422 69.3281C7.07422 69.2891 7.64062 69.2695 8.27344 69.2695C8.3125 69.2695 8.37109 69.2695 8.44922 69.2695C8.99609 69.2695 9.41016 69.2734 9.69141 69.2812C9.97266 69.2891 10.3516 69.3203 10.8281 69.375C11.3125 69.4219 11.6836 69.5 11.9414 69.6094C12.1992 69.7109 12.4961 69.8672 12.832 70.0781C13.168 70.2812 13.418 70.5352 13.582 70.8398C13.7461 71.1367 13.8906 71.5156 14.0156 71.9766C14.1406 72.4375 14.2031 72.9688 14.2031 73.5703C14.2031 73.7109 14.1953 73.9062 14.1797 74.1562L12.082 74.5547L11.9531 72.2461C11.9375 71.7461 11.6523 71.4258 11.0977 71.2852C10.543 71.1367 9.49219 71.0625 7.94531 71.0625C6.89062 71.0625 6.09375 71.1289 5.55469 71.2617C5.01562 71.3867 4.64062 71.582 4.42969 71.8477C4.21875 72.1133 4.08984 72.5078 4.04297 73.0312C3.97266 74.6328 3.9375 76.2734 3.9375 77.9531C3.9375 79.6406 3.97266 81.2812 4.04297 82.875C4.08203 83.7188 4.14844 84.2656 4.24219 84.5156C4.39062 84.8984 4.73047 85.1562 5.26172 85.2891C5.76172 85.4141 6.63281 85.4766 7.875 85.4766C10.5469 85.4766 12.0273 85.2969 12.3164 84.9375C12.3086 84.1328 12.3047 82.5 12.3047 80.0391H9.35156L9.15234 78.2695H14.4844ZM20.4258 87H18.0469V69.5391H20.4258V87ZM33.8906 71.3438H29.332V87H26.9531V71.3438H22.4883V69.5391H33.8906V71.3438ZM48.4453 87H46.0664V78.9844H38.2617V87H35.8828V69.5391H38.2617V77.1328H46.0664V69.5391H48.4453V87ZM65.3555 69.5391V80.4727C65.3555 81.4102 65.3125 82.2148 65.2266 82.8867C65.1484 83.5586 65.0039 84.1562 64.793 84.6797C64.582 85.1953 64.3164 85.6172 63.9961 85.9453C63.6836 86.2656 63.2695 86.5312 62.7539 86.7422C62.2461 86.9453 61.6758 87.0859 61.043 87.1641C60.4102 87.2422 59.6445 87.2812 58.7461 87.2812C57.8789 87.2812 57.1406 87.2461 56.5312 87.1758C55.9219 87.1055 55.3594 86.9766 54.8438 86.7891C54.3281 86.5938 53.9102 86.3398 53.5898 86.0273C53.2773 85.707 53.0078 85.293 52.7812 84.7852C52.5547 84.2695 52.3945 83.6641 52.3008 82.9688C52.2148 82.2734 52.1719 81.4414 52.1719 80.4727V69.5391H54.5508V80.7773C54.5508 81.4258 54.5508 81.8945 54.5508 82.1836C54.5586 82.4727 54.582 82.8281 54.6211 83.25C54.6602 83.6641 54.7109 83.9492 54.7734 84.1055C54.8359 84.2539 54.9375 84.4414 55.0781 84.668C55.2266 84.8945 55.3906 85.0391 55.5703 85.1016C55.7578 85.1562 56.0117 85.2266 56.332 85.3125C56.6523 85.3984 56.9961 85.4492 57.3633 85.4648C57.7383 85.4727 58.2031 85.4766 58.7578 85.4766C59.4141 85.4766 59.9609 85.457 60.3984 85.418C60.8438 85.3789 61.2305 85.3008 61.5586 85.1836C61.8867 85.0664 62.1367 84.9336 62.3086 84.7852C62.4883 84.6289 62.6289 84.4023 62.7305 84.1055C62.8398 83.8086 62.9102 83.5 62.9414 83.1797C62.9727 82.8594 62.9883 82.4336 62.9883 81.9023L62.9766 69.5391H65.3555ZM81.3984 81.9727C81.3906 82.4648 81.3711 82.8984 81.3398 83.2734C81.3164 83.6406 81.2734 83.9883 81.2109 84.3164C81.1484 84.6445 81.082 84.9219 81.0117 85.1484C80.9414 85.375 80.8281 85.5898 80.6719 85.793C80.5234 85.9883 80.3789 86.1484 80.2383 86.2734C80.0977 86.3906 79.8945 86.5 79.6289 86.6016C79.3711 86.6953 79.1211 86.7656 78.8789 86.8125C78.6367 86.8594 78.3125 86.8984 77.9062 86.9297C77.5078 86.9609 77.1211 86.9805 76.7461 86.9883C76.3789 86.9961 75.9141 87 75.3516 87H69.0938V69.5391H75.7266C76.6094 69.5391 77.3398 69.5859 77.918 69.6797C78.5039 69.7656 79.0195 69.9258 79.4648 70.1602C79.918 70.3945 80.2461 70.7266 80.4492 71.1562C80.6523 71.5859 80.7578 72.1328 80.7656 72.7969L80.7773 74.0625C80.7773 74.5938 80.7578 75.0273 80.7188 75.3633C80.6797 75.6992 80.6094 76.0039 80.5078 76.2773C80.4141 76.5508 80.2695 76.7656 80.0742 76.9219C79.8789 77.0781 79.6406 77.2109 79.3594 77.3203C79.0859 77.4219 78.7305 77.5117 78.293 77.5898C78.8242 77.6445 79.2812 77.7617 79.6641 77.9414C80.0469 78.1211 80.3477 78.3359 80.5664 78.5859C80.793 78.8359 80.9688 79.1523 81.0938 79.5352C81.2188 79.918 81.3008 80.293 81.3398 80.6602C81.3789 81.0273 81.3984 81.4648 81.3984 81.9727ZM78.457 73.5586C78.457 73.543 78.457 73.5195 78.457 73.4883C78.457 73.1602 78.457 72.9297 78.457 72.7969C78.457 72.6562 78.4336 72.4883 78.3867 72.293C78.3477 72.0898 78.3047 71.957 78.2578 71.8945C78.2188 71.832 78.1211 71.75 77.9648 71.6484C77.8164 71.5391 77.668 71.4766 77.5195 71.4609C77.3711 71.4375 77.1367 71.4102 76.8164 71.3789C76.5039 71.3398 76.1914 71.3203 75.8789 71.3203C75.5664 71.3203 75.1406 71.3203 74.6016 71.3203H71.4492V76.9219H73.8047C74.8281 76.9219 75.6562 76.8945 76.2891 76.8398C76.9219 76.7773 77.3906 76.6758 77.6953 76.5352C78.0078 76.3867 78.2109 76.2305 78.3047 76.0664C78.4062 75.9023 78.457 75.6836 78.457 75.4102V73.5586ZM79.0781 81.4102C79.0625 80.4805 79.0273 79.8945 78.9727 79.6523C78.8633 79.2227 78.5938 78.9297 78.1641 78.7734C77.6328 78.5703 76.4453 78.4648 74.6016 78.457C74.4766 78.457 74.3398 78.457 74.1914 78.457H71.4492V85.2305H75.9258C76.832 85.2305 77.5156 85.1562 77.9766 85.0078C78.4375 84.8516 78.7422 84.6211 78.8906 84.3164C79.0391 84.0117 79.1094 83.5625 79.1016 82.9688L79.0781 81.4102ZM101.555 81.9727C101.547 82.4648 101.527 82.8984 101.496 83.2734C101.473 83.6406 101.43 83.9883 101.367 84.3164C101.305 84.6445 101.238 84.9219 101.168 85.1484C101.098 85.375 100.984 85.5898 100.828 85.793C100.68 85.9883 100.535 86.1484 100.395 86.2734C100.254 86.3906 100.051 86.5 99.7852 86.6016C99.5273 86.6953 99.2773 86.7656 99.0352 86.8125C98.793 86.8594 98.4688 86.8984 98.0625 86.9297C97.6641 86.9609 97.2773 86.9805 96.9023 86.9883C96.5352 86.9961 96.0703 87 95.5078 87H89.25V69.5391H95.8828C96.7656 69.5391 97.4961 69.5859 98.0742 69.6797C98.6602 69.7656 99.1758 69.9258 99.6211 70.1602C100.074 70.3945 100.402 70.7266 100.605 71.1562C100.809 71.5859 100.914 72.1328 100.922 72.7969L100.934 74.0625C100.934 74.5938 100.914 75.0273 100.875 75.3633C100.836 75.6992 100.766 76.0039 100.664 76.2773C100.57 76.5508 100.426 76.7656 100.23 76.9219C100.035 77.0781 99.7969 77.2109 99.5156 77.3203C99.2422 77.4219 98.8867 77.5117 98.4492 77.5898C98.9805 77.6445 99.4375 77.7617 99.8203 77.9414C100.203 78.1211 100.504 78.3359 100.723 78.5859C100.949 78.8359 101.125 79.1523 101.25 79.5352C101.375 79.918 101.457 80.293 101.496 80.6602C101.535 81.0273 101.555 81.4648 101.555 81.9727ZM98.6133 73.5586C98.6133 73.543 98.6133 73.5195 98.6133 73.4883C98.6133 73.1602 98.6133 72.9297 98.6133 72.7969C98.6133 72.6562 98.5898 72.4883 98.543 72.293C98.5039 72.0898 98.4609 71.957 98.4141 71.8945C98.375 71.832 98.2773 71.75 98.1211 71.6484C97.9727 71.5391 97.8242 71.4766 97.6758 71.4609C97.5273 71.4375 97.293 71.4102 96.9727 71.3789C96.6602 71.3398 96.3477 71.3203 96.0352 71.3203C95.7227 71.3203 95.2969 71.3203 94.7578 71.3203H91.6055V76.9219H93.9609C94.9844 76.9219 95.8125 76.8945 96.4453 76.8398C97.0781 76.7773 97.5469 76.6758 97.8516 76.5352C98.1641 76.3867 98.3672 76.2305 98.4609 76.0664C98.5625 75.9023 98.6133 75.6836 98.6133 75.4102V73.5586ZM99.2344 81.4102C99.2188 80.4805 99.1836 79.8945 99.1289 79.6523C99.0195 79.2227 98.75 78.9297 98.3203 78.7734C97.7891 78.5703 96.6016 78.4648 94.7578 78.457C94.6328 78.457 94.4961 78.457 94.3477 78.457H91.6055V85.2305H96.082C96.9883 85.2305 97.6719 85.1562 98.1328 85.0078C98.5938 84.8516 98.8984 84.6211 99.0469 84.3164C99.1953 84.0117 99.2656 83.5625 99.2578 82.9688L99.2344 81.4102ZM113.59 87H104.719V69.5391H107.098V85.207H113.824L113.59 87ZM122.812 87.2812C122.133 87.2812 121.527 87.2656 120.996 87.2344C120.473 87.2031 119.988 87.125 119.543 87C119.098 86.8828 118.715 86.7734 118.395 86.6719C118.082 86.5703 117.797 86.3789 117.539 86.0977C117.289 85.8086 117.082 85.5625 116.918 85.3594C116.754 85.1484 116.613 84.8047 116.496 84.3281C116.379 83.8438 116.293 83.4336 116.238 83.0977C116.184 82.7539 116.137 82.2266 116.098 81.5156C116.066 80.8047 116.047 80.1953 116.039 79.6875C116.039 79.1797 116.039 78.4453 116.039 77.4844C116.039 76.3281 116.07 75.3672 116.133 74.6016C116.195 73.8359 116.316 73.125 116.496 72.4688C116.684 71.8125 116.926 71.2969 117.223 70.9219C117.527 70.5469 117.938 70.2266 118.453 69.9609C118.977 69.6875 119.582 69.5039 120.27 69.4102C120.965 69.3086 121.812 69.2578 122.812 69.2578C123.758 69.2578 124.566 69.3047 125.238 69.3984C125.91 69.4922 126.504 69.6602 127.02 69.9023C127.543 70.1367 127.961 70.4336 128.273 70.793C128.594 71.1445 128.855 71.6094 129.059 72.1875C129.262 72.7656 129.398 73.4141 129.469 74.1328C129.547 74.8438 129.586 75.7109 129.586 76.7344C129.586 79.625 129.543 81.5273 129.457 82.4414C129.309 84.0039 128.949 85.1211 128.379 85.793C127.777 86.5117 126.754 86.9648 125.309 87.1523C124.621 87.2383 123.789 87.2812 122.812 87.2812ZM124.488 71.1094C124.043 71.0781 123.484 71.0625 122.812 71.0625C122.141 71.0625 121.582 71.0781 121.137 71.1094C120.691 71.1406 120.301 71.207 119.965 71.3086C119.637 71.4102 119.383 71.5234 119.203 71.6484C119.023 71.7734 118.875 71.9688 118.758 72.2344C118.648 72.4922 118.574 72.7578 118.535 73.0312C118.504 73.3047 118.48 73.6758 118.465 74.1445C118.441 75.5898 118.43 77.043 118.43 78.5039C118.43 80.707 118.488 82.2148 118.605 83.0273C118.793 84.2461 119.148 84.9492 119.672 85.1367C120.062 85.3633 121.109 85.4766 122.812 85.4766C124.516 85.4766 125.562 85.3633 125.953 85.1367C126.102 85.082 126.234 84.9922 126.352 84.8672C126.477 84.7422 126.578 84.5742 126.656 84.3633C126.742 84.1523 126.816 83.9414 126.879 83.7305C126.941 83.5117 126.992 83.2344 127.031 82.8984C127.07 82.5625 127.102 82.2617 127.125 81.9961C127.148 81.7227 127.164 81.3789 127.172 80.9648C127.18 80.543 127.184 80.1953 127.184 79.9219C127.191 79.6484 127.195 79.2852 127.195 78.832C127.195 77.2539 127.184 75.6914 127.16 74.1445C127.145 73.6758 127.117 73.3047 127.078 73.0312C127.047 72.7578 126.973 72.4922 126.855 72.2344C126.746 71.9688 126.602 71.7734 126.422 71.6484C126.242 71.5234 125.984 71.4102 125.648 71.3086C125.32 71.207 124.934 71.1406 124.488 71.1094ZM145.617 78.2695V85.7578C144.508 86.7734 142.262 87.2812 138.879 87.2812C138.215 87.2812 137.629 87.2539 137.121 87.1992C136.621 87.1445 136.16 87.0742 135.738 86.9883C135.324 86.9023 134.969 86.7578 134.672 86.5547C134.375 86.3438 134.113 86.1328 133.887 85.9219C133.66 85.7109 133.477 85.4062 133.336 85.0078C133.195 84.6016 133.078 84.2109 132.984 83.8359C132.898 83.4609 132.832 82.957 132.785 82.3242C132.746 81.6914 132.719 81.0859 132.703 80.5078C132.688 79.9297 132.68 79.1875 132.68 78.2812C132.68 77.5078 132.684 76.8477 132.691 76.3008C132.707 75.7539 132.734 75.1953 132.773 74.625C132.82 74.0547 132.879 73.582 132.949 73.207C133.027 72.8242 133.129 72.4414 133.254 72.0586C133.387 71.668 133.539 71.3555 133.711 71.1211C133.883 70.8789 134.098 70.6406 134.355 70.4062C134.613 70.1719 134.898 69.9922 135.211 69.8672C135.531 69.7422 135.902 69.6289 136.324 69.5273C136.746 69.4258 137.207 69.3594 137.707 69.3281C138.207 69.2891 138.773 69.2695 139.406 69.2695C139.445 69.2695 139.504 69.2695 139.582 69.2695C140.129 69.2695 140.543 69.2734 140.824 69.2812C141.105 69.2891 141.484 69.3203 141.961 69.375C142.445 69.4219 142.816 69.5 143.074 69.6094C143.332 69.7109 143.629 69.8672 143.965 70.0781C144.301 70.2812 144.551 70.5352 144.715 70.8398C144.879 71.1367 145.023 71.5156 145.148 71.9766C145.273 72.4375 145.336 72.9688 145.336 73.5703C145.336 73.7109 145.328 73.9062 145.312 74.1562L143.215 74.5547L143.086 72.2461C143.07 71.7461 142.785 71.4258 142.23 71.2852C141.676 71.1367 140.625 71.0625 139.078 71.0625C138.023 71.0625 137.227 71.1289 136.688 71.2617C136.148 71.3867 135.773 71.582 135.562 71.8477C135.352 72.1133 135.223 72.5078 135.176 73.0312C135.105 74.6328 135.07 76.2734 135.07 77.9531C135.07 79.6406 135.105 81.2812 135.176 82.875C135.215 83.7188 135.281 84.2656 135.375 84.5156C135.523 84.8984 135.863 85.1562 136.395 85.2891C136.895 85.4141 137.766 85.4766 139.008 85.4766C141.68 85.4766 143.16 85.2969 143.449 84.9375C143.441 84.1328 143.438 82.5 143.438 80.0391H140.484L140.285 78.2695H145.617Z" fill="#3294F8"/>
<defs>
<clipPath id="clip0_406_119">
<rect width="45" height="40" fill="white" transform="translate(51.5)"/>
</clipPath>
</defs>
</svg>
